<mxfile host="app.diagrams.net" modified="2024-01-03T09:37:25.244Z" agent="Mozilla/5.0 (Windows NT 10.0; Win64; x64) AppleWebKit/537.36 (KHTML, like Gecko) Chrome/120.0.0.0 Safari/537.36 Edg/120.0.0.0" etag="kBAds1oIrmGdtFjLjFMy" version="22.1.16" type="device">
  <diagram name="Pagina-1" id="2I796OKm_wMps6its3X7">
    <mxGraphModel dx="1320" dy="748" grid="1" gridSize="10" guides="1" tooltips="1" connect="1" arrows="1" fold="1" page="1" pageScale="1" pageWidth="827" pageHeight="1169" math="0" shadow="0">
      <root>
        <mxCell id="0" />
        <mxCell id="1" parent="0" />
        <mxCell id="kcs-28iN3Ur5fPcAJLZJ-41" style="edgeStyle=orthogonalEdgeStyle;rounded=0;orthogonalLoop=1;jettySize=auto;html=1;entryX=0.5;entryY=1;entryDx=0;entryDy=0;" edge="1" parent="1" source="kcs-28iN3Ur5fPcAJLZJ-39" target="kcs-28iN3Ur5fPcAJLZJ-32">
          <mxGeometry relative="1" as="geometry" />
        </mxCell>
        <mxCell id="kcs-28iN3Ur5fPcAJLZJ-31" value="" style="rounded=0;whiteSpace=wrap;html=1;fillColor=none;dashed=1;" vertex="1" parent="1">
          <mxGeometry x="100" y="425" width="620" height="455" as="geometry" />
        </mxCell>
        <mxCell id="kcs-28iN3Ur5fPcAJLZJ-22" value="" style="edgeStyle=orthogonalEdgeStyle;rounded=0;orthogonalLoop=1;jettySize=auto;html=1;" edge="1" parent="1" source="kcs-28iN3Ur5fPcAJLZJ-1" target="kcs-28iN3Ur5fPcAJLZJ-2">
          <mxGeometry relative="1" as="geometry" />
        </mxCell>
        <mxCell id="kcs-28iN3Ur5fPcAJLZJ-3" value="" style="edgeStyle=orthogonalEdgeStyle;rounded=0;orthogonalLoop=1;jettySize=auto;html=1;" edge="1" parent="1" source="kcs-28iN3Ur5fPcAJLZJ-1" target="kcs-28iN3Ur5fPcAJLZJ-2">
          <mxGeometry relative="1" as="geometry" />
        </mxCell>
        <mxCell id="kcs-28iN3Ur5fPcAJLZJ-8" value="" style="edgeStyle=orthogonalEdgeStyle;rounded=0;orthogonalLoop=1;jettySize=auto;html=1;" edge="1" parent="1" source="kcs-28iN3Ur5fPcAJLZJ-2" target="kcs-28iN3Ur5fPcAJLZJ-17">
          <mxGeometry relative="1" as="geometry" />
        </mxCell>
        <mxCell id="kcs-28iN3Ur5fPcAJLZJ-2" value="itsm.cedacrigroup.it&lt;br&gt;10.100.30.125&lt;br&gt;80 -&amp;gt;31080&lt;br&gt;443-&amp;gt;31443" style="outlineConnect=0;dashed=0;verticalLabelPosition=bottom;verticalAlign=top;align=center;html=1;shape=mxgraph.aws3.classic_load_balancer;fillColor=#F58534;gradientColor=none;rotation=0;labelBackgroundColor=default;" vertex="1" parent="1">
          <mxGeometry x="379" y="260" width="69" height="72" as="geometry" />
        </mxCell>
        <mxCell id="kcs-28iN3Ur5fPcAJLZJ-1" value="itsm.cedacri.it&lt;br&gt;193.148.38.136&lt;br&gt;443-&amp;gt;443" style="outlineConnect=0;dashed=0;verticalLabelPosition=bottom;verticalAlign=top;align=center;html=1;shape=mxgraph.aws3.classic_load_balancer;fillColor=#F58534;gradientColor=none;rotation=0;shadow=0;labelBackgroundColor=default;" vertex="1" parent="1">
          <mxGeometry x="379" y="80" width="69" height="72" as="geometry" />
        </mxCell>
        <mxCell id="kcs-28iN3Ur5fPcAJLZJ-9" style="edgeStyle=orthogonalEdgeStyle;rounded=0;orthogonalLoop=1;jettySize=auto;html=1;" edge="1" parent="1" source="kcs-28iN3Ur5fPcAJLZJ-5" target="kcs-28iN3Ur5fPcAJLZJ-7">
          <mxGeometry relative="1" as="geometry">
            <Array as="points">
              <mxPoint x="605" y="410" />
              <mxPoint x="605" y="410" />
            </Array>
          </mxGeometry>
        </mxCell>
        <mxCell id="kcs-28iN3Ur5fPcAJLZJ-5" value="itsm-api.cedacrigroup.it&lt;br&gt;10.100.30.124&lt;br&gt;6443-&amp;gt;6443" style="outlineConnect=0;dashed=0;verticalLabelPosition=bottom;verticalAlign=top;align=center;html=1;shape=mxgraph.aws3.classic_load_balancer;fillColor=#F58534;gradientColor=none;rotation=0;labelBackgroundColor=default;" vertex="1" parent="1">
          <mxGeometry x="570" y="260" width="69" height="72" as="geometry" />
        </mxCell>
        <mxCell id="kcs-28iN3Ur5fPcAJLZJ-26" style="edgeStyle=orthogonalEdgeStyle;rounded=0;orthogonalLoop=1;jettySize=auto;html=1;entryX=0;entryY=0.5;entryDx=0;entryDy=0;" edge="1" parent="1" source="kcs-28iN3Ur5fPcAJLZJ-6" target="kcs-28iN3Ur5fPcAJLZJ-10">
          <mxGeometry relative="1" as="geometry" />
        </mxCell>
        <mxCell id="kcs-28iN3Ur5fPcAJLZJ-27" style="edgeStyle=orthogonalEdgeStyle;rounded=0;orthogonalLoop=1;jettySize=auto;html=1;entryX=0;entryY=0.5;entryDx=0;entryDy=0;" edge="1" parent="1" source="kcs-28iN3Ur5fPcAJLZJ-6" target="kcs-28iN3Ur5fPcAJLZJ-11">
          <mxGeometry relative="1" as="geometry">
            <Array as="points">
              <mxPoint x="280" y="495" />
              <mxPoint x="280" y="645" />
            </Array>
          </mxGeometry>
        </mxCell>
        <mxCell id="kcs-28iN3Ur5fPcAJLZJ-28" style="edgeStyle=orthogonalEdgeStyle;rounded=0;orthogonalLoop=1;jettySize=auto;html=1;entryX=0;entryY=0.5;entryDx=0;entryDy=0;" edge="1" parent="1" source="kcs-28iN3Ur5fPcAJLZJ-6" target="kcs-28iN3Ur5fPcAJLZJ-20">
          <mxGeometry relative="1" as="geometry">
            <Array as="points">
              <mxPoint x="280" y="495" />
              <mxPoint x="280" y="850" />
              <mxPoint x="520" y="850" />
              <mxPoint x="520" y="645" />
            </Array>
          </mxGeometry>
        </mxCell>
        <mxCell id="kcs-28iN3Ur5fPcAJLZJ-29" style="edgeStyle=orthogonalEdgeStyle;rounded=0;orthogonalLoop=1;jettySize=auto;html=1;entryX=0;entryY=0.5;entryDx=0;entryDy=0;" edge="1" parent="1" source="kcs-28iN3Ur5fPcAJLZJ-6" target="kcs-28iN3Ur5fPcAJLZJ-7">
          <mxGeometry relative="1" as="geometry">
            <Array as="points">
              <mxPoint x="280" y="495" />
              <mxPoint x="280" y="850" />
              <mxPoint x="520" y="850" />
              <mxPoint x="520" y="495" />
            </Array>
          </mxGeometry>
        </mxCell>
        <mxCell id="kcs-28iN3Ur5fPcAJLZJ-30" value="Porta 22" style="edgeLabel;html=1;align=center;verticalAlign=middle;resizable=0;points=[];" vertex="1" connectable="0" parent="kcs-28iN3Ur5fPcAJLZJ-29">
          <mxGeometry x="-0.9198" y="1" relative="1" as="geometry">
            <mxPoint as="offset" />
          </mxGeometry>
        </mxCell>
        <mxCell id="kcs-28iN3Ur5fPcAJLZJ-6" value="rm01jp1x" style="image;aspect=fixed;perimeter=ellipsePerimeter;html=1;align=center;shadow=0;dashed=0;spacingTop=3;image=img/lib/active_directory/generic_server.svg;" vertex="1" parent="1">
          <mxGeometry x="140" y="470" width="28.000000000000004" height="50" as="geometry" />
        </mxCell>
        <mxCell id="kcs-28iN3Ur5fPcAJLZJ-7" value="rm10ap1x&lt;br&gt;rm11ap1x&lt;br&gt;rm12ap1x" style="image;aspect=fixed;perimeter=ellipsePerimeter;html=1;align=center;shadow=0;dashed=0;spacingTop=3;image=img/lib/active_directory/server_farm.svg;" vertex="1" parent="1">
          <mxGeometry x="579.5" y="470" width="50" height="50" as="geometry" />
        </mxCell>
        <mxCell id="kcs-28iN3Ur5fPcAJLZJ-10" value="rm20ap1x&lt;br&gt;rm21ap1x&lt;br&gt;rm22ap1x" style="image;aspect=fixed;perimeter=ellipsePerimeter;html=1;align=center;shadow=0;dashed=0;spacingTop=3;image=img/lib/active_directory/server_farm.svg;" vertex="1" parent="1">
          <mxGeometry x="389" y="470" width="50" height="50" as="geometry" />
        </mxCell>
        <mxCell id="kcs-28iN3Ur5fPcAJLZJ-40" style="edgeStyle=orthogonalEdgeStyle;rounded=0;orthogonalLoop=1;jettySize=auto;html=1;" edge="1" parent="1" source="kcs-28iN3Ur5fPcAJLZJ-11">
          <mxGeometry relative="1" as="geometry">
            <mxPoint x="414" y="930" as="targetPoint" />
          </mxGeometry>
        </mxCell>
        <mxCell id="kcs-28iN3Ur5fPcAJLZJ-43" value="1433" style="edgeLabel;html=1;align=center;verticalAlign=middle;resizable=0;points=[];" vertex="1" connectable="0" parent="kcs-28iN3Ur5fPcAJLZJ-40">
          <mxGeometry x="0.7389" y="1" relative="1" as="geometry">
            <mxPoint as="offset" />
          </mxGeometry>
        </mxCell>
        <mxCell id="kcs-28iN3Ur5fPcAJLZJ-11" value="rm30ap1x&lt;br&gt;rm31ap1x&lt;br&gt;rm32ap1x&lt;br&gt;rm33ap1x&lt;br&gt;rm34ap1x&lt;br&gt;rm35ap1x&lt;br&gt;rm36ap1x&lt;br&gt;rm37ap1x&lt;br&gt;rm38ap1x&lt;br&gt;rm39ap1x&lt;br&gt;" style="image;aspect=fixed;perimeter=ellipsePerimeter;html=1;align=center;shadow=0;dashed=0;spacingTop=3;image=img/lib/active_directory/server_farm.svg;" vertex="1" parent="1">
          <mxGeometry x="389" y="620" width="50" height="50" as="geometry" />
        </mxCell>
        <mxCell id="kcs-28iN3Ur5fPcAJLZJ-17" value="INFRA NODES" style="text;html=1;align=center;verticalAlign=middle;resizable=0;points=[];autosize=1;strokeColor=none;fillColor=none;" vertex="1" parent="1">
          <mxGeometry x="364" y="440" width="100" height="30" as="geometry" />
        </mxCell>
        <mxCell id="kcs-28iN3Ur5fPcAJLZJ-18" value="MASTER NODES" style="text;html=1;align=center;verticalAlign=middle;resizable=0;points=[];autosize=1;strokeColor=none;fillColor=none;rotation=90;" vertex="1" parent="1">
          <mxGeometry x="590" y="480" width="120" height="30" as="geometry" />
        </mxCell>
        <mxCell id="kcs-28iN3Ur5fPcAJLZJ-19" value="WORKER NODES" style="text;html=1;align=center;verticalAlign=middle;resizable=0;points=[];autosize=1;strokeColor=none;fillColor=none;rotation=90;" vertex="1" parent="1">
          <mxGeometry x="400" y="630" width="120" height="30" as="geometry" />
        </mxCell>
        <mxCell id="kcs-28iN3Ur5fPcAJLZJ-20" value="rm50ap1x&lt;br&gt;rm51ap1x&lt;br&gt;rm52ap1x" style="image;aspect=fixed;perimeter=ellipsePerimeter;html=1;align=center;shadow=0;dashed=0;spacingTop=3;image=img/lib/active_directory/server_farm.svg;" vertex="1" parent="1">
          <mxGeometry x="579.5" y="620" width="50" height="50" as="geometry" />
        </mxCell>
        <mxCell id="kcs-28iN3Ur5fPcAJLZJ-21" value="CEPH NODES" style="text;html=1;align=center;verticalAlign=middle;resizable=0;points=[];autosize=1;strokeColor=none;fillColor=none;rotation=90;" vertex="1" parent="1">
          <mxGeometry x="600" y="630" width="100" height="30" as="geometry" />
        </mxCell>
        <mxCell id="kcs-28iN3Ur5fPcAJLZJ-23" value="BASTION HOST" style="text;html=1;align=center;verticalAlign=middle;resizable=0;points=[];autosize=1;strokeColor=none;fillColor=none;" vertex="1" parent="1">
          <mxGeometry x="99" y="440" width="110" height="30" as="geometry" />
        </mxCell>
        <mxCell id="kcs-28iN3Ur5fPcAJLZJ-42" style="edgeStyle=orthogonalEdgeStyle;rounded=0;orthogonalLoop=1;jettySize=auto;html=1;entryX=1;entryY=0.5;entryDx=0;entryDy=0;" edge="1" parent="1" source="kcs-28iN3Ur5fPcAJLZJ-32" target="kcs-28iN3Ur5fPcAJLZJ-37">
          <mxGeometry relative="1" as="geometry">
            <Array as="points">
              <mxPoint x="605" y="965" />
            </Array>
          </mxGeometry>
        </mxCell>
        <mxCell id="kcs-28iN3Ur5fPcAJLZJ-32" value="rm50rp1x" style="image;aspect=fixed;perimeter=ellipsePerimeter;html=1;align=center;shadow=0;dashed=0;spacingTop=3;image=img/lib/active_directory/generic_server.svg;" vertex="1" parent="1">
          <mxGeometry x="590.5" y="760" width="28.000000000000004" height="50" as="geometry" />
        </mxCell>
        <mxCell id="kcs-28iN3Ur5fPcAJLZJ-33" value="QUORUM NODE" style="text;html=1;align=center;verticalAlign=middle;resizable=0;points=[];autosize=1;strokeColor=none;fillColor=none;rotation=90;" vertex="1" parent="1">
          <mxGeometry x="590" y="770" width="120" height="30" as="geometry" />
        </mxCell>
        <mxCell id="kcs-28iN3Ur5fPcAJLZJ-37" value="rm11dp1x&lt;br&gt;rm12dp1x" style="image;aspect=fixed;perimeter=ellipsePerimeter;html=1;align=center;shadow=0;dashed=0;spacingTop=3;image=img/lib/active_directory/database_server.svg;" vertex="1" parent="1">
          <mxGeometry x="393" y="940" width="41" height="50" as="geometry" />
        </mxCell>
        <mxCell id="kcs-28iN3Ur5fPcAJLZJ-39" value="DB SERVER" style="text;html=1;align=center;verticalAlign=middle;resizable=0;points=[];autosize=1;strokeColor=none;fillColor=none;rotation=90;labelBackgroundColor=default;" vertex="1" parent="1">
          <mxGeometry x="414" y="950" width="90" height="30" as="geometry" />
        </mxCell>
        <mxCell id="kcs-28iN3Ur5fPcAJLZJ-44" value="VMWARE&lt;br&gt;" style="text;html=1;align=center;verticalAlign=middle;resizable=0;points=[];autosize=1;strokeColor=none;fillColor=none;" vertex="1" parent="1">
          <mxGeometry x="640" y="395" width="80" height="30" as="geometry" />
        </mxCell>
        <mxCell id="kcs-28iN3Ur5fPcAJLZJ-46" value="" style="rounded=0;whiteSpace=wrap;html=1;fillColor=none;dashed=1;" vertex="1" parent="1">
          <mxGeometry x="340" y="910" width="140" height="140" as="geometry" />
        </mxCell>
        <mxCell id="kcs-28iN3Ur5fPcAJLZJ-47" value="SYNERGY" style="text;html=1;align=center;verticalAlign=middle;resizable=0;points=[];autosize=1;strokeColor=none;fillColor=none;" vertex="1" parent="1">
          <mxGeometry x="400" y="1050" width="80" height="30" as="geometry" />
        </mxCell>
        <mxCell id="kcs-28iN3Ur5fPcAJLZJ-48" value="" style="rounded=0;whiteSpace=wrap;html=1;fillColor=none;dashed=1;dashPattern=8 8;" vertex="1" parent="1">
          <mxGeometry x="80" y="400" width="660" height="680" as="geometry" />
        </mxCell>
        <mxCell id="kcs-28iN3Ur5fPcAJLZJ-49" value="10.100.13.0/24" style="text;html=1;align=center;verticalAlign=middle;resizable=0;points=[];autosize=1;strokeColor=none;fillColor=none;rotation=90;" vertex="1" parent="1">
          <mxGeometry x="700" y="430" width="100" height="30" as="geometry" />
        </mxCell>
      </root>
    </mxGraphModel>
  </diagram>
</mxfile>
